<svg xmlns="http://www.w3.org/2000/svg" xmlns:xlink="http://www.w3.org/1999/xlink" width="654" viewBox="0 0 654 667">
  <defs>
    <style>
      .sc-sandbox-1, .sc-sandbox-11, .sc-sandbox-5, .sc-sandbox-6, .sc-sandbox-7 {
        fill: none;
      }

      .sc-sandbox-1, .sc-sandbox-7 {
        stroke: #e9edff;
      }

      .sc-sandbox-1, .sc-sandbox-5, .sc-sandbox-6, .sc-sandbox-7 {
        stroke-miterlimit: 10;
      }

      .sc-sandbox-1, .sc-sandbox-5 {
        stroke-dasharray: 7;
      }

      .sc-sandbox-2, .sc-sandbox-3 {
        fill: #ff7379;
      }

      .sc-sandbox-2 {
        opacity: 0.1;
      }

      .sc-sandbox-4 {
        fill: #e9edff;
      }

      .sc-sandbox-5, .sc-sandbox-6 {
        stroke: #8597ff;
        opacity: 0.15;
      }

      .sc-sandbox-6 {
        stroke-width: 1.63px;
        stroke-dasharray: 12;
      }

      .sc-sandbox-8 {
        fill: #21203f;
        opacity: 0.98;
      }

      .sc-sandbox-10, .sc-sandbox-9 {
        fill: #7b90d4;
      }

      .sc-sandbox-9 {
        opacity: 0.2;
      }
		
		
		
:root{
	--bigWhite1: "M379.6,276.7c8.2,11.4,20.8,23.3,2.7,63.1c-13.4,29.3-29.1,52.5-81.6,16.2c-26.5-18.4-23.6-59.9,5.1-74.5C323.5,272.5,357.6,246.3,379.6,276.7z";
	--bigWhite2: "M373.6,289c-1,20.6,0.7,8.8-4.4,51.5c-3.1,30.1-17.9-2.9-66.1-16.7c-24.1-8.5,5.9-32.8,34.7-47.4C355.4,267.4,374.1,259.4,373.6,289z";
}
.bigWhite{
	animation: bigWhite_d 10s ease .1s infinite,
			   opacity 1.3s ease .1s forwards,
			   bigWhite 12s linear 0s infinite;
	d: path(var(--bigWhite1));
	transform-origin: center;
	transform-box: fill-box;
	opacity: 0;
}
@keyframes bigWhite_d{
	50%{
		d: path(var(--bigWhite2));
	}
}
@keyframes bigWhite{
	100%{
		transform: rotate(360deg)
	}
}

.bgLine path{
	animation: bgLine .5s ease .3s forwards;
	transform-origin: center;
	transform-box: fill-box;
	opacity: 0;
}
@keyframes bgLine{
	0%{
		transform: scale(.5) rotate(-20deg);
		opacity: 0;
	}
	100%{
		opacity: 0.15;
	}
}

.bgLine path:last-child{
	animation: bgLine .5s ease .5s forwards;
	transform-origin: center;
	transform-box: fill-box;
	opacity: 0;
}

.lineFill line{
	animation: opacity 1s ease forwards;
	transform-origin: 53% 50%;
	transform-box: fill-box;
	opacity: 0;
}
.lineFill line:nth-child(1){
	animation-delay: 1s;
}
.lineFill line:nth-child(2){
	animation-delay: 1.2s;
}
.lineFill line:nth-child(3){
	animation-delay: 1.4s;
}
.lineFill line:nth-child(4){
	animation-delay: 1.6s;
}
.lineFill line:nth-child(5){
	animation-delay: 1.8s;
}
@keyframes opacity{
	0%{
		transform: scale(.5);
		opacity: 0;
	}
	100%{
		opacity: 1;
	}
}


.subEleps path{
	animation: subEleps 1s ease forwards;
	transform-origin: 53% 50%;
	transform-box: fill-box;
	opacity: 0;
}
.subEleps path:nth-child(1),
.subEleps path:nth-child(2){
	animation-delay: 1s;
}
.subEleps path:nth-child(3),
.subEleps path:nth-child(4){
	animation-delay: 1.2s;
}
.subEleps path:nth-child(5),
.subEleps path:nth-child(6){
	animation-delay: 1.4s;
}
.subEleps path:nth-child(7),
.subEleps path:nth-child(8){
	animation-delay: 1.6s;
}
.subEleps path:nth-child(9),
.subEleps path:nth-child(10){
	animation-delay: 1.8s;
}
@keyframes subEleps{
	0%{
		transform: scale(.5);
		opacity: 0;
	}
	100%{
		opacity: 1;
	}
}




.dashTopLeft{
	animation: dash 2s ease 3s forwards;
	transform-origin: 31% 19%;
	opacity: 0;
}
@keyframes dash{
	0%{
		transform: scale(0)
	}
	100%{
		opacity: 1;
	}
}

.dashTopRight{
	animation: dash 2s ease 3s forwards;
	transform-origin: 82% 31%;
	opacity: 0;
}
.dashBottom{
	animation: dash 2s ease 5s forwards;
	transform-origin: 68% 77%;
	opacity: 0;
}

.rectangleRedWrap{
	animation: dash 2s ease 4s forwards;
	transform-origin: center;
	transform-box: fill-box;
	opacity: 0;
}

.triangle{
	animation: dash 2s ease 6s forwards;
	transform-origin: center;
	transform-box: fill-box;
	opacity: 0;
}
		
		
    </style>
    
    <rect id="rectangleRed" class="sc-sandbox-3" x="385.71" y="41.47" width="23.11" height="23.11"/>
    <filter id="filter_rectangleRed" x="-93.8%" y="-93.8%" width="287.5%" height="287.5%" filterUnits="objectBoundingBox" >
    	<feOffset dx="0" dy="0" in="SourceAlpha" result="shadowOffsetOuter1"></feOffset>
    	<feGaussianBlur stdDeviation="7.5" in="shadowOffsetOuter1" result="shadowBlurOuter1"></feGaussianBlur>
    	<feColorMatrix values="0 0 0 0 1   0 0 0 0 0.405890584   0 0 0 0 0.457833052  0 0 0 1 0" type="matrix" in="shadowBlurOuter1"></feColorMatrix>
    </filter>
        
  </defs>
 
                    
                    
  <path class="sc-sandbox-4 bigWhite" d="M375,268.43c8.23,11.4,20.81,23.31,2.68,63.07-13.36,29.32-29.14,52.52-81.57,16.19-26.48-18.35-23.56-59.89,5.15-74.51C318.88,264.22,353,238,375,268.43Z"/>
  
  <g class="bgLine">
    <path class="sc-sandbox-5" d="M468.94,324.44c0,68.44-62,121.9-131.37,132.67C261.24,469,194.16,377.79,192.13,312c-2.38-77.21,67.29-150,162-148.35C410.74,164.63,468.94,247.19,468.94,324.44Z"/>
    <path class="sc-sandbox-6" d="M565.56,308.2C565.93,495.78,456.88,524.38,332,539.77c-121.36,15-248.47-44.49-233.92-215.49C108.16,205.92,196.25,54,332,81.6,449.42,105.46,565.32,182.38,565.56,308.2Z"/>
  </g>
  
  <g class="lineFill">
    <line class="sc-sandbox-7" x1="261.99" y1="480.83" x2="332.01" y2="311.96"/>
    <line class="sc-sandbox-7" x1="186.83" y1="128.86" x2="332.01" y2="311.96"/>
    <line class="sc-sandbox-7" x1="437.49" y1="517.59" x2="332.01" y2="311.96"/>
    <line class="sc-sandbox-7" x1="332.01" y1="311.96" x2="98.09" y2="351.04"/>
    <line class="sc-sandbox-7" x1="332.01" y1="311.96" x2="538.81" y2="208.99"/>  
  </g>
  
  <line class="sc-sandbox-1 dashTopLeft" x1="397.26" y1="53.02" x2="185.48" y2="129.42"/>
  <line class="sc-sandbox-1 dashTopRight" x1="537.08" y1="209.52" x2="397.26" y2="53.02"/>
  <line class="sc-sandbox-1 dashBottom" x1="438.85" y1="517.75" x2="307.56" y2="624.31"/>
  
  <g class="subEleps">
    
    <path class="sc-sandbox-8" d="M282.13,471c8.67,18.31-2.6,34.33-17.35,33.41-10.28-.64-24.53-11-26.67-20.56-1.77-7.87,3.12-16.78,12.32-22.54C264.51,452.49,275.8,457.64,282.13,471Z"/>
    <path class="sc-sandbox-7" d="M282.13,471c8.67,18.31-2.6,34.33-17.35,33.41-10.28-.64-24.53-11-26.67-20.56-1.77-7.87,3.12-16.78,12.32-22.54C264.51,452.49,275.8,457.64,282.13,471Z"/>
    
    <path class="sc-sandbox-8" d="M208.87,127.48c0,14.78-8.93,26.07-18.36,26-13.08,0-28.13-10.58-28.4-22.47-.33-14.18,6.57-17.38,18.74-23.41C196.68,99.77,208.87,113.46,208.87,127.48Z"/>
    <path class="sc-sandbox-7" d="M208.87,127.48c0,14.78-8.93,26.07-18.36,26-13.08,0-28.13-10.58-28.4-22.47-.33-14.18,6.57-17.38,18.74-23.41C196.68,99.77,208.87,113.46,208.87,127.48Z"/>
    
    <path class="sc-sandbox-8" d="M460,523.72c-2.89,14.94-14.09,23.77-30,13.69-12.47-7.92-14.42-11.67-12.28-26.29,2-13.43,11.81-21.38,25.7-15.23S463,508.14,460,523.72Z"/>
    <path class="sc-sandbox-7" d="M460,523.72c-2.89,14.94-14.09,23.77-30,13.69-12.47-7.92-14.42-11.67-12.28-26.29,2-13.43,11.81-21.38,25.7-15.23S463,508.14,460,523.72Z"/>
    
    <path class="sc-sandbox-8" d="M126.27,350.23c-.58,11.77-5.94,17.48-16.09,21.8-13.59,5.78-23.19,3-29.49-16-4.65-14-3.6-23.14,18.54-28.67C111.82,324.23,127,335.47,126.27,350.23Z"/>
    <path class="sc-sandbox-7" d="M126.27,350.23c-.58,11.77-5.94,17.48-16.09,21.8-13.59,5.78-23.19,3-29.49-16-4.65-14-3.6-23.14,18.54-28.67C111.82,324.23,127,335.47,126.27,350.23Z"/>
    
    <path class="sc-sandbox-8" d="M548.73,191.09c20,11.14,12.43,32.77-2.42,38.59-12.74,5-21.15,7.74-28.78-10.1-5.81-13.58-6.58-21.36,3.75-29.11C530,183.91,535.82,183.9,548.73,191.09Z"/>
    <path class="sc-sandbox-7" d="M548.73,191.09c20,11.14,12.43,32.77-2.42,38.59-12.74,5-21.15,7.74-28.78-10.1-5.81-13.58-6.58-21.36,3.75-29.11C530,183.91,535.82,183.9,548.73,191.09Z"/>
    
  </g>
  
 
  <g class="rectangleRedWrap">
    <rect class="sc-sandbox-2" x="375.17" y="30.92" width="44.2" height="44.2"/>
  	<use fill="black" fill-opacity="1" filter="url(#filter_rectangleRed)" xlink:href="#rectangleRed"></use>
  	<use fill="#FF7379" xlink:href="#rectangleRed"></use>
  </g>
  
  <g class="triangle">
  	<polygon class="sc-sandbox-9" points="307.56 592.53 280.13 640.03 334.99 640.03 307.56 592.53"/>
  	<polygon class="sc-sandbox-10" points="307.56 606.57 292.3 633.01 322.83 633.01 307.56 606.57"/>
  </g>
  
  <rect class="sc-sandbox-11" width="654" height="667"/>
      
</svg>